<?xml version="1.0" standalone="no"?><!DOCTYPE svg PUBLIC "-//W3C//DTD SVG 1.1//EN" "http://www.w3.org/Graphics/SVG/1.1/DTD/svg11.dtd"><svg t="1606382080956" class="icon" viewBox="0 0 1024 1024" version="1.1" xmlns="http://www.w3.org/2000/svg" p-id="1357" xmlns:xlink="http://www.w3.org/1999/xlink" width="128" height="128"><defs><style type="text/css"></style></defs><path d="M204.8 389.12h423.25333333v34.13333333H204.8v-34.13333333z" p-id="1358"></path><path d="M512 948.90666667H102.4V320.85333333h245.76V75.09333333h389.12v382.29333334c27.30666667 0 47.78666667 6.82666667 68.26666667 6.82666666V0H273.06666667L27.30666667 245.76v771.41333333h532.48c-20.48-13.65333333-40.96-40.96-47.78666667-68.26666666z" p-id="1359"></path><path d="M204.8 457.38666667h423.25333333v34.13333333H204.8v-34.13333333zM204.8 532.48h361.81333333v34.13333333H204.8v-34.13333333zM204.8 600.74666667h245.76v34.13333333H204.8v-34.13333333zM552.96 860.16c0-40.96 34.13333333-286.72 279.89333333-348.16 0 0-157.01333333-20.48-279.89333333 95.57333333-88.74666667 75.09333333-68.26666667 170.66666667-34.13333333 225.28 6.82666667 116.05333333 61.44 177.49333333 61.44 177.49333334-27.30666667-54.61333333-27.30666667-143.36-27.30666667-150.18666667z" p-id="1360"></path><path d="M805.54666667 546.13333333c40.96 0 68.26666667 20.48 68.26666666 20.48-54.61333333-6.82666667-102.4 0-122.88 6.82666667-27.30666667 20.48-40.96 34.13333333-61.44 54.61333333 75.09333333-6.82666667 122.88 6.82666667 122.88 6.82666667-68.26666667 0-136.53333333 27.30666667-163.84 34.13333333-20.48 27.30666667-27.30666667 40.96-34.13333333 68.26666667 88.74666667-34.13333333 150.18666667-20.48 150.18666667-20.48-75.09333333 6.82666667-150.18666667 54.61333333-163.84 68.26666667-20.48 61.44-20.48 95.57333333-20.48 95.57333333s184.32 34.13333333 273.06666666-157.01333333c68.26666667-136.53333333 150.18666667-197.97333333 150.18666667-197.97333334-81.92-13.65333333-143.36-6.82666667-197.97333333 20.48z" p-id="1361"></path></svg>