<?xml version="1.0" standalone="no"?><!DOCTYPE svg PUBLIC "-//W3C//DTD SVG 1.1//EN" "http://www.w3.org/Graphics/SVG/1.1/DTD/svg11.dtd"><svg t="1606382098754" class="icon" viewBox="0 0 1024 1024" version="1.1" xmlns="http://www.w3.org/2000/svg" p-id="2488" xmlns:xlink="http://www.w3.org/1999/xlink" width="128" height="128"><defs><style type="text/css"></style></defs><path d="M490.10688 483.40992c-0.53247999 10.40384-7.65952001 19.70176001-17.5104 22.44608l-261.7344 64.08192c-9.87135999 2.72384-17.53088-3.85024-17.53088-13.70112v-26.82879999c0.53247999-10.40384 7.65952001-19.72224 17.5104-22.44608l261.7344-64.08192001c9.87135999-2.72384 17.53088 4.38272001 17.53088 13.70112001v26.82879999z m0 125.95200001c-0.53247999 10.40384-7.65952001 19.70176001-17.5104 22.44607998l-261.7344 64.06144c-9.87135999 2.74432001-17.53088-3.82976-17.53088-13.68064V655.36c0.53247999-10.40384 7.65952001-19.72224 17.5104-22.46656l261.7344-64.06144c9.87135999-2.74432001 17.53088 4.38272001 17.53088 13.70112v26.82879999z m0 126.48447998c-0.53247999 10.40384-7.65952001 19.72224-17.5104 22.44608l-261.7344 64.08192001c-9.87135999 2.72384-17.53088-4.38272001-17.53088-13.70112001v-26.82879999c0.53247999-10.40384 7.65952001-19.70176001 17.5104-22.44608l261.7344-64.06144c9.87135999-2.74432001 17.53088 3.82976 17.53088 13.68064v26.82879999z m236.56448001-439.17311998c0.55296 0.55296-137.42080001-106.78272001-137.42080001-106.78272001a35.45088 35.45088 0 0 0-31.232-4.9152l-466.5344 179.60960001a28.99968 28.99968 0 0 0-16.9984 24.63743999l-0.53248 559.104H36.67968a36.67968 36.67968 0 0 0 0 73.35936H95.86688c3.82976 0 7.12704-0.53247999 10.40384-1.6384h616.59136a18.22720001 18.22720001 0 0 0 18.06336001-18.06336V326.24639999a45.95712 45.95712 0 0 0-14.23360001-29.57311998z m260.09599998 654.37696c-3.2768 0-6.00064 0.55296-9.29791999 1.10591999-2.19136-1.10591999-4.38272001-1.10591999-6.5536-1.10592001h-67.37920001c-9.8304 0-18.06335999-7.65952001-18.06335999-17.51039999V137.33888001a41.02144 41.02144 0 0 0-14.2336-28.46720001l-140.1856-102.4a39.44447999 39.44447999 0 0 0-32.29696-4.93568L271.07328 117.06368c-9.85088 3.2768-16.97792 12.5952-17.5104 22.99904v84.33664h0.53248c0 19.70176001 16.44544 35.59423999 36.70016 35.59424 19.70176001 0 36.1472-15.89248 36.67967999-35.59424V187.6992c1.6384-9.29792001 8.21248-16.42495999 16.99840001-19.70176l341.68832-87.61344a41.98400001 41.98400001 0 0 1 32.29696 4.9152l80.4864 59.14624c8.78592 7.12704 13.72160001 17.53088 14.25408 28.4672v831.79520001c0 9.87135999 8.21248 17.53088 18.06336 17.53088h139.63264c2.19136 0 4.38272001-0.55296 6.57408-1.08544001 3.2768 1.08544 6.57408 1.08544 9.87136001 1.08544001 19.70176001 0 36.12672-15.872 36.67967999-35.59424001a37.31456001 37.31456001 0 0 0-37.23264-35.59423999" p-id="2489"></path></svg>