<?xml version="1.0" standalone="no"?><!DOCTYPE svg PUBLIC "-//W3C//DTD SVG 1.1//EN" "http://www.w3.org/Graphics/SVG/1.1/DTD/svg11.dtd">
<svg t="1599017259226" class="icon" viewBox="0 0 1024 1024" version="1.1" xmlns="http://www.w3.org/2000/svg" p-id="1110" width="64" height="64"><path d="M683.94391398 837.28406021c-2.81875269-6.20125592-9.0200086-9.58375914-15.78501506-9.58375913h-121.20636558v-123.46136774H459.00744947V827.70030108H337.80108387c-6.76500645 0-12.96626237 3.94625376-15.78501505 9.58375913l-26.49627527 87.94508387c-4.5100043 8.45625806-1.12750108 19.16751828 7.89250753 23.67752258 2.25500215 1.12750108 5.07375484 1.69125161 7.89250752 1.69125162h383.35036559c9.58375914 0 17.47626666-7.89250753 17.47626667-17.47626667 0-2.81875269-0.56375053-5.63750537-1.69125162-7.89250753l-26.49627526-87.94508387z m161.7964043-611.66933332v-46.79129463h50.73754838V115.1196215h-761.0632258v63.70381076h50.73754838v46.22754408h-2.81875268C83.5495914 225.05097634 2.36951398 285.93603441 1.80576344 361.47860645c0 75.54257205 80.61632689 136.42763011 180.40017204 136.99138065 6.76500645 0 13.5300129 0 19.73126882-0.56375054 44.53629247 102.60259785 157.85015053 171.94391398 300.47903656 171.94391397 142.62888602-0.56375053 281.87526882-69.34131613 326.41156129-171.94391397h7.32875699c99.78384516 1.69125161 182.65517419-58.06630537 185.47392688-133.04512688 2.25500215-75.54257205-76.67007311-138.11888172-176.45391828-139.81013334l0.56375054 0.56375055zM183.8971871 462.95370323c-55.81130323 0-101.47509677-45.10004301-101.47509678-101.47509678s45.10004301-101.47509677 101.47509678-101.47509677h2.25500214v160.66890322c0 14.09376344 1.12750108 27.62377634 3.38250323 41.71753979-2.25500215 0.56375053-3.94625376 0.56375053-5.63750537 0.56375054z m255.37899355 33.82503225L403.75989677 478.17496774l-35.51628387 18.60376774 6.76500645-40.02628817-28.75127741-28.18752688 40.02628817-5.63750538 17.47626666-36.0800344 17.47626667 36.0800344 40.02628817 5.63750538-28.75127742 28.18752688 6.76500646 40.02628817zM500.72498924 346.25734194l-62.57630967 32.69753117L449.98744086 309.61355699l-50.73754839-49.04629678 69.90506667-10.14750968L500.72498924 186.71593979l31.00627958 63.70381074 69.90506666 10.14750968-50.73754838 49.61004732 11.83876129 69.90506666-62.01255915-33.82503225z m141.50138495 150.52139354l-35.51628387-18.60376774-35.51628387 18.60376774 6.76500645-40.02628817-28.75127742-28.18752688 40.02628818-5.63750538 17.47626666-36.0800344 17.47626667 36.0800344 40.02628817 5.63750538-28.75127742 28.18752688 6.76500645 40.02628817z m199.56769033-33.82503225c2.25500215-13.5300129 3.94625376-27.62377634 3.94625376-41.71753979V260.56726021c55.81130323 3.94625376 98.09259355 51.86504947 94.14633978 107.67635269-3.38250323 51.86504947-45.66379355 93.01883871-98.09259354 94.71009033z" p-id="1111"></path></svg>
