<?xml version="1.0" standalone="no"?><!DOCTYPE svg PUBLIC "-//W3C//DTD SVG 1.1//EN" "http://www.w3.org/Graphics/SVG/1.1/DTD/svg11.dtd"><svg t="1606383610261" class="icon" viewBox="0 0 1024 1024" version="1.1" xmlns="http://www.w3.org/2000/svg" p-id="2560" xmlns:xlink="http://www.w3.org/1999/xlink" width="128" height="128"><defs><style type="text/css"></style></defs><path d="M617.637 165.271c3.408 6.816 8.52 11.927 11.927 17.038 5.112 5.112 10.223 6.816 17.038 6.816H796.54V173.79c0-3.407 0-8.519-1.704-13.63-1.704-5.112-5.111-11.927-10.223-20.446s-13.63-17.038-23.853-28.965c-10.223-10.223-23.854-25.558-42.596-40.892-17.038-15.335-30.669-27.261-42.596-35.78-10.223-10.223-20.446-17.039-28.965-22.15-8.519-5.112-15.334-8.52-20.446-10.223C621.045 0 615.933 0 610.822 0h-1.704v126.083c0 5.112 1.704 10.223 1.704 17.038 1.704 8.52 3.408 15.335 6.815 22.15zM476.22 766.722z m0 0" p-id="2561"></path><path d="M488.146 882.582c-8.519-27.26-13.63-56.226-13.63-86.895v-15.334c0-5.112 0-10.223 1.704-13.63H224.053c-17.038 0-32.372-6.816-44.3-18.743-11.926-11.927-20.445-28.965-20.445-46.003 0-17.039 5.111-30.67 17.038-42.596 13.63-13.63 32.373-20.446 51.115-20.446h294.762c25.557-40.892 59.634-71.56 102.23-95.414 42.595-23.854 88.599-35.78 139.713-35.78h18.742c6.816 0 11.927 0 17.039 1.703v-253.87H650.01c-18.742 0-34.077-3.408-47.707-11.927-13.63-8.519-25.558-18.742-34.077-32.372-8.519-13.631-15.334-27.262-18.742-40.892-3.407-15.335-6.815-28.965-6.815-42.596V0H143.973C82.636 0 31.521 49.411 31.521 110.749v761.61c0 61.338 49.41 110.75 110.749 110.75h407.214l-3.407-1.705c-13.631-22.15-46.004-61.337-57.93-98.822zM178.05 402.103c11.927-11.927 27.261-18.742 46.003-18.742h383.361c17.039 0 32.373 6.815 44.3 18.742s18.742 27.261 18.742 46.003c0 17.039-6.815 32.373-18.742 44.3s-27.261 18.742-44.3 18.742h-383.36c-17.039 0-32.373-6.815-46.004-18.742-11.927-11.927-18.742-27.261-18.742-44.3 0-18.742 6.815-34.076 18.742-46.003z m0 0" p-id="2562"></path><path d="M975.44 710.496c-11.926-27.261-27.26-51.115-47.706-71.56-20.446-20.447-44.3-35.781-71.561-47.708-27.261-11.927-56.226-17.038-88.599-17.038-30.669 0-59.634 5.111-86.895 17.038-27.261 11.927-51.115 27.261-71.56 47.707-20.447 20.446-35.781 44.3-47.708 71.56-11.927 27.262-17.038 56.227-17.038 88.6 0 30.669 6.815 61.338 17.038 88.599 11.927 27.261 27.261 51.115 47.707 71.56 20.446 20.446 44.3 35.78 71.56 47.708 27.262 11.927 56.227 17.038 86.896 17.038 30.669 0 61.338-5.111 88.599-17.038s51.115-27.262 71.56-47.707c20.447-20.446 35.781-44.3 47.708-71.561 11.927-27.261 17.038-56.226 17.038-88.6 0-32.372-6.815-61.337-17.038-88.598z m-68.152 103.933c0 15.335-11.927 27.262-27.261 27.262H765.87c-15.334 0-27.261-11.927-27.261-27.262V700.273c0-15.335 11.927-27.261 27.261-27.261 15.335 0 27.261 11.926 27.261 27.26v86.896h88.6c13.63 0 25.557 11.927 25.557 27.261z" p-id="2563"></path></svg>