<?xml version="1.0" standalone="no"?><!DOCTYPE svg PUBLIC "-//W3C//DTD SVG 1.1//EN" "http://www.w3.org/Graphics/SVG/1.1/DTD/svg11.dtd"><svg t="1606383599931" class="icon" viewBox="0 0 1024 1024" version="1.1" xmlns="http://www.w3.org/2000/svg" p-id="1852" xmlns:xlink="http://www.w3.org/1999/xlink" width="128" height="128"><defs><style type="text/css"></style></defs><path d="M482.6386056 716.20384402c0-161.85809006 131.31514805-293.1745045 293.1732381-293.1745045 59.60926609 0 115.08628158 17.85365272 161.41485141 48.39532831V317.82981255c0-55.47701549-45.00138667-100.47840217-100.47840216-100.47840215H393.66794512c-8.55703869-58.87095714-89.11629603-142.23528193-126.59402327-142.23528194h-140.31669178c-49.72251146 0-81.73953856 23.01801616-100.03516351 57.69067595-10.03365657 15.34492197-16.08323092 33.78744889-16.08323093 53.55969175v3.54084358l-0.44323864 10.91886748 0.44323864 10.9176011v155.5134454l0.5901406 435.85049229c0 55.47701549 45.00138667 100.47840217 100.33150021 100.47840217h438.8011953c-42.34575397-50.90279266-67.72306612-116.11839443-67.72306614-187.38230416z m0 0" p-id="1853"></path><path d="M775.8118437 480.72001546c-129.9879649 0-235.48256217 105.3476953-235.48256215 235.48382856 0 129.9879649 105.3476953 235.48256217 235.48256215 235.48256215 129.9879649 0 235.48382856-105.49459725 235.48382856-235.48256215 0-130.13486687-105.49586366-235.48382856-235.48382856-235.48382856z m107.11811711 400.43952355l-107.11811711-56.3622264-107.11811709 56.3622264 20.5092854-119.36416772-86.90516838-84.54460599 119.80740638-17.41041408 53.55969175-108.59346859 53.55842536 108.59346859 119.80740636 17.41041408-86.75700003 84.54460599 20.65618736 119.36416772z m0 0" p-id="1854"></path></svg>