<?xml version="1.0" standalone="no"?><!DOCTYPE svg PUBLIC "-//W3C//DTD SVG 1.1//EN" "http://www.w3.org/Graphics/SVG/1.1/DTD/svg11.dtd"><svg t="1606382094957" class="icon" viewBox="0 0 1024 1024" version="1.1" xmlns="http://www.w3.org/2000/svg" p-id="2208" xmlns:xlink="http://www.w3.org/1999/xlink" width="128" height="128"><defs><style type="text/css"></style></defs><path d="M707.62105283 476.49122766l-227.25614026 248.56140347c-7.10175407 7.10175407-21.30526321 14.20350913-28.40701825 14.20350911-14.20350913 0-21.30526321-7.10175407-28.40701728-14.20350911L302.82105283 604.32280693c-14.20350913-21.30526321-14.20350913-49.7122805 7.10175408-63.91578964 14.20350913-14.20350913 42.61052641-14.20350913 56.81403555 0l78.11929778 92.32280692 198.84912297-220.1543852c14.20350913-14.20350913 42.61052641-14.20350913 56.81403458 0 21.30526321 21.30526321 28.40701729 49.7122805 7.10175504 63.91578867m177.54385974-411.90175409h-85.22105283v127.83157924c0 49.7122805-35.50877234 85.22105283-85.22105283 85.22105283H295.71929779c-49.7122805 0-85.22105283-35.50877234-85.22105188-85.22105283V64.58947359H132.37894717c-49.7122805 0-85.22105283 42.61052641-85.22105283 85.22105282v752.78596447c0 49.7122805 35.50877234 85.22105283 85.22105283 85.22105283h752.78596542c42.61052641 0 85.22105283-35.50877234 85.22105187-85.22105283V149.81052641c0-42.61052641-35.50877234-85.22105283-85.22105187-85.22105282m-170.44210566-14.20350913c-7.10175407-14.20350913-28.40701729-28.40701729-49.7122805-28.40701729H359.63508741c-21.30526321 0-35.50877234 14.20350913-49.71228048 28.40701729-7.10175407 7.10175407-7.10175407 21.30526321-7.1017541 28.40701825v56.81403458c0 28.40701729 28.40701729 56.81403554 56.8140346 56.81403554h312.47719307c28.40701729 0 56.81403554-28.40701729 56.81403554-56.81403554v-56.81403458c-7.10175407-7.10175407-7.10175407-21.30526321-14.20350913-28.40701825" p-id="2209"></path></svg>