<?xml version="1.0" standalone="no"?><!DOCTYPE svg PUBLIC "-//W3C//DTD SVG 1.1//EN" "http://www.w3.org/Graphics/SVG/1.1/DTD/svg11.dtd"><svg t="1606382083180" class="icon" viewBox="0 0 1025 1024" version="1.1" xmlns="http://www.w3.org/2000/svg" p-id="1500" xmlns:xlink="http://www.w3.org/1999/xlink" width="128.125" height="128"><defs><style type="text/css"></style></defs><path d="M796.86956522 89.39130435c15.65217391 9.39130435 21.91304348 31.30434783 12.52173913 46.95652174l-62.60869565 106.43478261-56.34782609-34.43478261 62.60869565-106.43478261c6.26086957-9.39130435 12.52173913-12.52173913 21.91304348-15.65217391 6.26086957 0 15.65217391 0 21.91304348 3.13043478zM512 11.13043478c21.91304348 0 34.43478261 15.65217391 34.43478261 34.43478261V167.65217391h-72V45.56521739c0-18.7826087 18.7826087-34.43478261 37.56521739-34.43478261zM227.13043478 89.39130435c9.39130435-6.26086957 15.65217391-6.26086957 25.04347826-3.13043478 9.39130435 3.13043478 15.65217391 9.39130435 18.7826087 15.65217391l62.60869565 106.43478261-59.47826087 34.43478261L214.60869565 136.34782609c-9.39130435-15.65217391-6.26086957-37.56521739 12.52173913-46.95652174zM14.26086957 302.26086957c6.26086957-9.39130435 12.52173913-15.65217391 21.91304347-15.65217392 9.39130435-3.13043478 15.65217391-3.13043478 25.04347826 3.13043478l106.43478261 62.60869566-34.43478261 56.34782608-106.4347826-62.60869565c-15.65217391-6.26086957-18.7826087-28.17391304-12.52173913-43.82608695z m995.47826086 0c9.39130435 15.65217391 3.13043478 37.56521739-12.52173913 46.95652173l-106.4347826 62.60869566-34.43478261-62.60869566 106.43478261-62.60869565c9.39130435-6.26086957 15.65217391-6.26086957 25.04347826-3.13043478 9.39130435 3.13043478 15.65217391 9.39130435 21.91304347 18.7826087z m0 0M975.30434783 940.86956522H856.34782609V605.91304348c0-190.95652174-153.39130435-347.47826087-344.34782609-347.47826087C321.04347826 261.56521739 167.65217391 414.95652174 167.65217391 605.91304348v334.95652174H48.69565217c-21.91304348 0-34.43478261 15.65217391-34.4347826 34.43478261-3.13043478 21.91304348 15.65217391 37.56521739 34.4347826 37.56521739h929.73913044c21.91304348 0 34.43478261-15.65217391 34.43478261-34.43478261 0-18.7826087-15.65217391-37.56521739-37.56521739-37.56521739z m-507.13043479-50.08695652l34.43478261-209.73913044h-134.60869565l169.04347826-278.60869565-34.43478261 209.73913043H637.2173913l-169.04347826 278.60869566z m0 0" p-id="1501"></path></svg>