<?xml version="1.0" standalone="no"?><!DOCTYPE svg PUBLIC "-//W3C//DTD SVG 1.1//EN" "http://www.w3.org/Graphics/SVG/1.1/DTD/svg11.dtd"><svg t="1606381150789" class="icon" viewBox="0 0 1024 1024" version="1.1" xmlns="http://www.w3.org/2000/svg" p-id="1065" xmlns:xlink="http://www.w3.org/1999/xlink" width="128" height="128"><defs><style type="text/css"></style></defs><path d="M202.285 49C172.87 175.409 170.87 282.647 186.99 373.31c17.007-71.903 48.513-104.512 48.513-104.512-31.412 84.548-23.416 176.004-18.91 210.261 17.863 46.204 40.581 87.24 66.726 123.208-0.096-129.77 50.416-204.841 50.416-204.841-26.524 122.322 7.012 248.033 17.293 281.719 32.49 31.057 66.885 56.884 100.643 78.306-33.028-154.36 11.582-255.291 11.582-255.291-4.95 131.258 49.117 256.02 70.565 300.29 81.987 38.438 145.636 50.862 145.636 50.862s103.754-295.6-178.983-497.558C290.585 205.704 202.285 49 202.285 49m436.463 838.346c-75.168-18.761-472.603-137.66-503.634-561.824 0 0-70.31 255.323 82.811 492.868 111.116 172.55 274.553 165.135 366.406 124.286 195.386 16.89 313.895-55.33 313.895-55.33-87.827 31.817-235.81 4.69-259.478 0" p-id="1066"></path></svg>