<?xml version="1.0" standalone="no"?><!DOCTYPE svg PUBLIC "-//W3C//DTD SVG 1.1//EN" "http://www.w3.org/Graphics/SVG/1.1/DTD/svg11.dtd"><svg t="1606382086255" class="icon" viewBox="0 0 1025 1024" version="1.1" xmlns="http://www.w3.org/2000/svg" p-id="1644" xmlns:xlink="http://www.w3.org/1999/xlink" width="128.125" height="128"><defs><style type="text/css"></style></defs><path d="M357.17372839 694.272c-0.512 117.76 55.808 228.864 151.04 297.984H70.96572839C40.75772839 991.744 16.18172839 967.168 16.69372839 936.96V122.88c0-30.208 24.576-54.272 54.784-54.784h100.864v66.56c-1.024 38.4 28.672 70.656 67.072 71.68s70.656-28.672 71.68-67.072V68.096h36.864v71.68c1.536 38.4 33.28 68.608 71.68 67.072 38.4-1.536 68.608-33.28 67.072-71.68v-66.56h37.376v66.56c0 38.4 31.232 69.632 69.632 69.632s69.632-31.232 69.632-69.632v-66.56h100.864c29.696 0 53.76 24.576 53.76 54.272v226.304c-35.328-11.776-72.192-17.92-109.568-17.92-196.608 3.584-353.792 165.888-351.232 363.008z" p-id="1645"></path><path d="M593.20572839 164.352c-15.872 0-29.184-13.312-29.184-29.184V31.744c-1.024-15.872 11.264-29.696 27.648-30.208 15.872-1.024 29.696 11.264 30.208 27.648V135.168c0.512 15.872-12.288 29.184-28.16 29.696l-0.512-0.512zM417.58972839 164.352c-15.872 0-29.184-13.312-29.184-29.184V31.744C387.38172839 15.872 399.66972839 2.048 416.05372839 1.536c15.872-1.024 29.696 11.264 30.208 27.648V135.168c0.512 15.872-12.288 29.184-28.16 29.696l-0.512-0.512zM242.99772839 164.352c-15.872 0-29.184-13.312-29.184-29.184V31.744c0-15.872 12.8-29.184 29.184-29.184C258.86972839 2.56 272.18172839 15.36 272.18172839 31.744v102.912c0.512 15.872-12.288 29.184-28.16 29.696h-1.024zM726.83772839 395.776c162.816 3.072 292.864 142.848 289.792 312.32 0 3.072 0 6.656-0.512 9.728-5.12 172.032-143.872 307.2-309.248 302.08-165.376-5.632-294.912-150.016-289.792-322.048 6.144-172.544 144.384-307.712 309.76-302.08z m166.912 244.224c11.776-12.288 10.752-31.744-1.536-43.008l-1.024-1.024c-11.776-10.24-29.696-9.216-39.936 2.56l-175.616 194.048-92.16-98.304-0.512-0.512c-11.776-11.264-30.208-11.264-41.472 0.512-11.776 11.776-11.776 30.72-0.512 42.496l113.664 120.832c5.632 6.144 13.312 9.728 20.992 9.728 8.192 0 16.384-3.584 21.504-10.24l196.608-217.088z" p-id="1646"></path></svg>