<svg t="1592889047071" class="icon" viewBox="0 0 1048 1024" version="1.1" xmlns="http://www.w3.org/2000/svg" p-id="1930" width="64" height="64"><path d="M546.72619151 62h59.36892714v94.14656455c111.84406084 0.6173543 223.89390615-1.1318168 335.63507432 0.5144625 24.07682637-2.26363359 42.90613945 16.46278682 40.53961406 40.53961318 1.74917109 195.49559883-0.41156982 391.09408945 1.02892412 586.69258008-1.02892412 21.0929458 2.05784824 44.55241787-10.08345761 63.27883828-15.22807822 11.11238174-35.1892081 9.67188779-53.09248887 10.49502745-104.64159112-0.5144625-209.2831831-0.30867714-314.02766602-0.30867716v104.64159112h-65.13090204c-159.48325107-29.11855518-319.27518018-55.66479961-478.86132393-83.75442979C62 634.08185703 62 390.02103565 62.10289268 145.96021513 223.54110019 117.97347676 385.08219951 89.47227588 546.72619151 62z" fill="#077467" p-id="1931"></path><path d="M602.59677646 187.52875244v452.72664931l7.81982315-3.90991201 14.40493945-6.58511455 14.40493857-16.97724931h28.80987803l47.12472773-56.2821539 82.4168294 89.00194305h30.04458662l64.10197793 49.69703937-68.01188994-28.80987804h-24.89996602l-75.83171396-47.02183593-40.53961318 48.3594372-19.65245273-23.56236386-60.19206505-3.90991202v185.82371104H947.90373857V187.52875244H602.59677646z m232.84554698 252.4979997c-26.03178193 0-47.12472862-21.0929458-47.12472862-47.1247286s21.0929458-47.12472862 47.12472862-47.12472862c26.03178193 0 47.12472862 21.0929458 47.12472773 47.12472862v0.10289267c-0.10289268 26.03178193-21.0929458 47.12472862-47.12472773 47.02183593z" fill="#FFFFFF" p-id="1932"></path><path d="M157.99862832 426.03338252h26.23756728V508.55310371c0 10.80370371-0.92603144 19.03509756-2.88098789 24.89996602-2.57231075 7.61403867-7.20246973 13.68469161-13.89047695 18.31485058s-15.53675537 6.89379258-26.44335175 6.89379258c-12.86155283 0-22.7392251-3.60123487-29.73590948-10.80370459-6.89379258-7.20246973-10.39213477-17.80038896-10.49502744-31.69086504l24.79707334-2.88098789c0.30867714 7.51114687 1.44049395 12.75866016 3.29255772 15.84543252 2.88098789 4.73305166 7.20246973 6.99668437 12.96444463 6.99668438 5.86486758 0 9.98056494-1.64627842 12.449983-5.04172793 2.46941807-3.39544951 3.60123487-10.28924209 3.60123487-20.88716133v-84.16600049zM212.22293398 556.29518662V426.03338252h42.18589161c16.05121787 0 26.44335175 0.6173543 31.27929609 1.95495644 7.51114687 1.95495557 13.68469161 6.1735456 18.72642041 12.75866016 5.04172881 6.58511455 7.51114687 15.02229375 7.51114687 25.41442763 0 8.02560849-1.44049395 14.71361572-4.32148183 20.16691437-2.88098789 5.45329863-6.58511455 9.77477959-11.11238174 12.86155282-4.42437363 3.08677237-9.05453262 5.1446206-13.6846916 6.17354473-6.2764374 1.23470948-15.3309709 1.85206377-27.2664914 1.85206377h-17.1830338v49.18257686H212.22293398z m26.23756641-108.24282597v36.93837919h14.40493945c10.39213477 0 17.28592646-0.72024698 20.78426865-2.05784823 3.49834219-1.33760127 6.2764374-3.49834219 8.23139385-6.37933008 1.95495557-2.88098789 2.98388057-6.2764374 2.98387969-10.08345762 0-4.73305166-1.44049395-8.64296367-4.21858916-11.72973604-2.77809521-3.08677237-6.2764374-5.04172881-10.59791923-5.7619749-3.18966503-0.6173543-9.46610244-0.92603144-18.93220489-0.92603232h-12.65576836zM394.2396248 508.45021191v-21.91608632H450.93334854V538.39190586c-5.55619043 5.35040596-13.47890713 9.98056494-23.9739337 14.09626143-10.49502656 4.01280469-21.0929458 6.07065293-31.79375771 6.07065292-13.68469161 0-25.51732031-2.88098789-35.60077793-8.54007099-10.08345762-5.76197578-17.80038896-13.89047695-22.8421169-24.4883962-5.1446206-10.59791924-7.61403867-22.2247626-7.61403954-34.6747456 0-13.58179981 2.88098789-25.62021299 8.54007099-36.21813135 5.6590831-10.59791924 13.99336875-18.62352773 25.00285781-24.28261172 8.33428565-4.32148183 18.72642041-6.48222276 31.17640342-6.48222187 16.15410967 0 28.80987802 3.39544951 37.86441065 10.18634942 9.05453262 6.7908999 14.91940107 16.15410967 17.59460449 28.08963017l-26.13467461 4.93883613c-1.85206377-6.37933008-5.24751328-11.42105888-10.39213476-15.12518554s-11.42105888-5.55619043-18.93220577-5.55619044c-11.52395068 0-20.68137685 3.60123487-27.47227587 10.9065964-6.7908999 7.30536152-10.18634942 18.10906612-10.18634942 32.411112 0 15.43386269 3.39544951 27.06070693 10.28924209 34.77763829 6.89379258 7.71693135 15.84543252 11.62684336 27.06070605 11.62684336 5.55619043 0 11.00948906-1.1318168 16.56567949-3.29255685 5.55619043-2.16074092 10.28924209-4.83594346 14.30204678-7.81982401v-16.5656795h-30.1474793z" fill="#FFFFFF" p-id="1933"></path></svg>