<?xml version="1.0" standalone="no"?><!DOCTYPE svg PUBLIC "-//W3C//DTD SVG 1.1//EN" "http://www.w3.org/Graphics/SVG/1.1/DTD/svg11.dtd"><svg t="1606382088184" class="icon" viewBox="0 0 1024 1024" version="1.1" xmlns="http://www.w3.org/2000/svg" p-id="1785" xmlns:xlink="http://www.w3.org/1999/xlink" width="128" height="128"><defs><style type="text/css"></style></defs><path d="M582.95927147 575.4806595c44.57152689 0 86.4417491 17.55848028 118.18207886 49.29881003l18.90913262 18.23380645 101.97425088-101.29892473V172.31093908c0-73.61055198-60.77935484-134.38990682-134.3899068-134.38990682H148.0492213C73.76334316 37.92103226 13.65931448 98.7003871 13.65931448 172.31093908v604.41691755c0 73.61055198 60.77935484 134.38990682 134.38990682 134.38990681H418.85501341c39.16891756 0 49.9741362-35.11696058 27.0130466-72.93522581-40.51956989-68.88326882-39.84424373-155.32501792 18.23380645-214.07839426 32.41565592-31.06500359 73.61055198-48.62348387 118.85740501-48.62348387zM249.34814602 239.84355555h336.98775629c18.90913262 0 33.76630824 14.85717563 33.76630823 33.76630825s-14.85717563 33.76630824-33.76630823 33.76630825H249.34814602c-18.90913262 0-33.76630824-14.85717563-33.76630823-33.76630825s14.85717563-33.76630824 33.76630823-33.76630825z m66.85729033 470.02701076h-67.53261649c-18.90913262 0-33.76630824-14.85717563-33.76630824-33.76630825s14.85717563-33.76630824 33.76630824-33.76630824h67.53261649c18.90913262 0 33.76630824 14.85717563 33.76630824 33.76630824s-14.85717563 33.76630824-33.76630824 33.76630825zM249.34814602 508.62336918c-18.90913262 0-33.76630824-14.85717563-33.76630823-33.76630826s14.85717563-33.76630824 33.76630823-33.76630823h336.98775629c18.90913262 0 33.76630824 14.85717563 33.76630823 33.76630823s-14.85717563 33.76630824-33.76630823 33.76630826H249.34814602z m764.46921865 76.31185663c-12.83119714-12.83119714-33.09098208-12.83119714-45.92217922 0L719.37515678 832.77992832 605.92036108 719.32513262c-12.83119714-12.83119714-33.76630824-12.83119714-45.92217921 0-12.83119714 12.83119714-12.83119714 33.09098208 0 45.9221792l138.4418638 138.44186381c12.83119714 12.83119714 33.76630824 12.83119714 45.92217922 0 3.37663082-3.37663082 269.45513979-272.8317706 269.45513978-272.83177061 12.83119714-12.15587097 12.83119714-33.09098208 0-45.92217921z" p-id="1786"></path></svg>