<svg id="图层_1" data-name="图层 1" xmlns="http://www.w3.org/2000/svg" viewBox="0 0 20.02 25.71"><title>消息</title><path d="M22.07,22.59H3.92a.93.93,0,0,1-.84-1.34L5.1,17V10.8a8.12,8.12,0,0,1,16.24,0v6.26l1.6,4.27a.94.94,0,0,1-.87,1.26ZM5.4,20.72H20.72l-1.19-3.16a1,1,0,0,1-.06-.33V10.8A6.26,6.26,0,0,0,7,10.8v6.43a1,1,0,0,1-.09.4Z" transform="translate(-2.98 -0.14)"/><path d="M15.16,4.17a.93.93,0,0,1-.93-.93,1.23,1.23,0,0,0-2.46,0,.93.93,0,1,1-1.87,0,3.1,3.1,0,0,1,6.19,0A.93.93,0,0,1,15.16,4.17ZM13,25.86A4.09,4.09,0,0,1,8.9,21.77a.93.93,0,0,1,1.87,0,2.22,2.22,0,0,0,4.44,0,.93.93,0,1,1,1.87,0A4.09,4.09,0,0,1,13,25.86Z" transform="translate(-2.98 -0.14)"/></svg>