<?xml version="1.0" standalone="no"?><!DOCTYPE svg PUBLIC "-//W3C//DTD SVG 1.1//EN" "http://www.w3.org/Graphics/SVG/1.1/DTD/svg11.dtd"><svg t="1606383597963" class="icon" viewBox="0 0 1260 1024" version="1.1" xmlns="http://www.w3.org/2000/svg" p-id="1712" xmlns:xlink="http://www.w3.org/1999/xlink" width="157.5" height="128"><defs><style type="text/css"></style></defs><path d="M78.768115 950.845745V102.442068A102.398549 102.398549 0 0 1 181.166664 0.043518h582.898557a102.398549 102.398549 0 0 1 102.398549 102.39855v848.403677h78.768115V472.608689h120.052471a102.384043 102.384043 0 0 1 102.39855 102.39855v375.838506h55.99354a36.569874 36.569874 0 1 1 0 73.139749H36.569874a36.569874 36.569874 0 0 1 0-73.139749z m236.318851-708.913034v73.139749h78.768115v-73.139749z m236.304345 0v73.139749h78.71009v-73.139749z m-236.304345 236.304345v73.139748h78.768115v-73.139748z m236.304345 0v73.139748h78.71009v-73.139748z m-236.304345 236.362369v73.139749h78.768115v-73.139749z m236.304345 0v73.139749h78.71009v-73.139749z" p-id="1713"></path></svg>