<?xml version="1.0" standalone="no"?><!DOCTYPE svg PUBLIC "-//W3C//DTD SVG 1.1//EN" "http://www.w3.org/Graphics/SVG/1.1/DTD/svg11.dtd"><svg t="1599017332117" class="icon" viewBox="0 0 1024 1024" version="1.1" xmlns="http://www.w3.org/2000/svg" p-id="1110" width="64" height="64"><path d="M625.612223 328.171699c-31.289924-35.139081-27.3166-86.04729001 7.822481-117.337214L821.174245 42.713229H140.866739c-58.606524 0-109.514733 50.784043-109.514732 113.36389v754.683157c0 58.606524 50.784043 109.514733 109.514732 109.514733h695.952468c58.606524 0 109.514733-50.784043 109.514733-109.514733V156.201285l-207.233661 183.766218c-31.289924 27.3166-86.04729001 23.467443-113.488056-11.795804z m-437.93476501 105.66557501H531.86661799c15.64496201 0 27.3166 11.67163799 27.3166 27.31660001s-11.67163799 27.3166-27.3166 27.31659999H187.67745799c-15.64496201 0-27.3166-11.67163799-27.31659998-27.31659999s11.67163799-27.3166 27.31659998-27.31660001zM821.174245 676.21001599c0 15.64496201-11.67163799 27.3166-27.3166 27.31660001H187.67745799c-15.64496201 0-27.3166-11.67163799-27.31659998-27.31660001s11.67163799-27.3166 27.31659998-27.31659999H793.857645c15.520795 0 27.3166 11.67163799 27.3166 27.31659999z m0 0" fill="" p-id="1111"></path><path d="M985.446344 15.396629C973.77470599-0.248333 950.307263-0.248333 938.511459 11.547472L664.724627 249.94688999c-15.64496201 11.67163799-15.64496201 35.139081-3.84915699 46.93488501 7.822481 15.64496201 31.289924 19.49411899 42.96156199 3.849157L977.623863 62.33151401c15.64496201-7.822481 19.49411899-31.289924 7.822481-46.93488501z m0 0" fill="" p-id="1112"></path></svg>
