<?xml version="1.0" standalone="no"?><!DOCTYPE svg PUBLIC "-//W3C//DTD SVG 1.1//EN" "http://www.w3.org/Graphics/SVG/1.1/DTD/svg11.dtd"><svg t="1599017370317" class="icon" viewBox="0 0 1024 1024" version="1.1" xmlns="http://www.w3.org/2000/svg" p-id="1110" width="64" height="64"><path d="M886.725 0h-749.45c-28.331 0-51.941 14.998-51.941 44.317v964.002h53.225l16.929-17.04299999c55.989-50.455 87.695-96.811 104.558-96.81100001 12.143 0 47.217 43.631 64.081 65.44300001 30.35599999 40.224 45.874 57.953 63.415 57.95299999 15.511 0 29.00399999-16.36 68.805-64.76400001 16.864-21.133 45.198-55.904 56.662-63.40499998 7.426 6.13200001 21.591 29.995 31.706 44.31099999 30.35599999 42.269 61.386 73.633 95.79 89.996 35.077 0 68.808-51.13200001 98.485-92.03499999 10.12400001-13.639 22.937-34.09199999 30.356-40.91000001 18.893 9.545 45.198 55.904 99.83800001 100.221l18.51199999 16.36 50.969 0.683V44.317C938.666 15.68400001 915.729 0 886.725 0zM763.95 576.089c0 14.995-12.14000001 27.265-26.97800001 27.265H287.705c-14.842 0-26.985-12.27-26.985-27.265v-19.098c0-14.995 12.143-27.265 26.985-27.265h449.26699999c14.83899999 0 26.978 12.27 26.97800001 27.265v19.098z m0-165.674c0 15.00400001-12.14000001 27.274-26.97800001 27.274H287.705c-14.842 0-26.985-12.27-26.985-27.274V391.33c0-14.998 12.143-27.271 26.985-27.271h449.26699999c14.83899999 0 26.978 12.273 26.97800001 27.271v19.085z m0-166.344c0 14.998-12.14000001 27.26799999-26.97800001 27.268H287.705c-14.842 0-26.985-12.27-26.985-27.268V224.97999999c0-14.998 12.143-27.26799999 26.985-27.26799999h449.26699999c14.83899999 0 26.978 12.27 26.97800001 27.26800001v19.09099999z" p-id="1111"></path></svg>
