<?xml version="1.0" standalone="no"?><!DOCTYPE svg PUBLIC "-//W3C//DTD SVG 1.1//EN" "http://www.w3.org/Graphics/SVG/1.1/DTD/svg11.dtd"><svg t="1606383608237" class="icon" viewBox="0 0 1024 1024" version="1.1" xmlns="http://www.w3.org/2000/svg" p-id="2419" xmlns:xlink="http://www.w3.org/1999/xlink" width="128" height="128"><defs><style type="text/css"></style></defs><path d="M819.2 0h-179.2l-39.936 59.904c-7.168 10.752-18.944 16.896-31.744 16.896H302.08c-12.8 0-24.576-6.656-31.744-16.896L230.4 0H51.2C23.04 0 0 23.04 0 51.2v921.6c0 28.16 23.04 51.2 51.2 51.2h539.136C526.848 967.68 486.4 885.248 486.4 793.6c0-169.472 137.728-307.2 307.2-307.2 26.112 0 51.712 3.072 76.8 9.728V51.2c0-28.16-23.04-51.2-51.2-51.2zM358.4 742.4H179.2c-28.16 0-51.2-23.04-51.2-51.2s23.04-51.2 51.2-51.2h179.2c28.16 0 51.2 23.04 51.2 51.2s-23.04 51.2-51.2 51.2z m128-204.8H179.2c-28.16 0-51.2-23.04-51.2-51.2s23.04-51.2 51.2-51.2h307.2c28.16 0 51.2 23.04 51.2 51.2s-23.04 51.2-51.2 51.2z m102.4-204.8H179.2c-28.16 0-51.2-23.04-51.2-51.2s23.04-51.2 51.2-51.2h409.6c28.16 0 51.2 23.04 51.2 51.2s-23.04 51.2-51.2 51.2z" p-id="2420"></path><path d="M780.8 1024c-134.144 0-243.2-109.056-243.2-243.2s109.056-243.2 243.2-243.2 243.2 109.056 243.2 243.2-109.056 243.2-243.2 243.2z m153.6-268.8h-128V614.4c0-14.336-11.264-25.6-25.6-25.6s-25.6 11.264-25.6 25.6v192h179.2c14.336 0 25.6-11.264 25.6-25.6s-11.264-25.6-25.6-25.6z" p-id="2421"></path></svg>