<?xml version="1.0" standalone="no"?><!DOCTYPE svg PUBLIC "-//W3C//DTD SVG 1.1//EN" "http://www.w3.org/Graphics/SVG/1.1/DTD/svg11.dtd"><svg t="1606383595138" class="icon" viewBox="0 0 1024 1024" version="1.1" xmlns="http://www.w3.org/2000/svg" p-id="1572" xmlns:xlink="http://www.w3.org/1999/xlink" width="128" height="128"><defs><style type="text/css"></style></defs><path d="M902.86703943 60.99956989H121.13296057c-15.03334766 0-25.05557906-10.02223139-25.05557906-25.05557906s10.02223139-25.05557906 25.05557906-25.05558023h781.73407886c15.03334766 0 25.05557906 10.02223139 25.05557906 25.05558023s-10.02223139 25.05557906-25.05557906 25.05557906zM852.75588013 161.22188731H176.25523497C101.08849662 161.22188731 40.95510594 226.36639427 40.95510594 306.5442489v561.2449789c0 80.17785463 60.13339068 145.32236042 135.30012903 145.3223616h671.48953006c75.16673835 0 135.30012903-65.14450696 140.31124414-145.3223616V306.5442489c0-80.17785463-60.13339068-145.32236042-135.30012904-145.32236159z m-170.37793947 511.13382078c15.03334766 0 25.05557906 10.02223139 25.05557905 25.05558024s-10.02223139 25.05557906-25.05557905 25.05557906h-145.3223616v95.2112023c0 15.03334766-10.02223139 25.05557906-25.05557906 25.05557905s-25.05557906-10.02223139-25.05557906-25.05557905v-95.2112023H341.62205934c-15.03334766 0-25.05557906-10.02223139-25.05557905-25.05557906s10.02223139-25.05557906 25.05557905-25.05558024h145.3223616v-100.22231741H341.62205934c-15.03334766 0-25.05557906-10.02223139-25.05557905-25.05557906s10.02223139-25.05557906 25.05557905-25.05558023H512c-5.01111628 0-15.03334766-5.01111628-20.04446395-5.01111511L346.63317563 371.68875468c-5.01111628-10.02223139-5.01111628-30.06669534 0-40.08892673 5.01111628-10.02223139 25.05557906-10.02223139 35.07781162 0L512 461.8888407l125.27789764-125.27789646c10.02223139-10.02223139 25.05557906-10.02223139 35.07781045 0s10.02223139 25.05557906 0 35.07781044l-145.32236043 145.3223616s-10.02223139 5.01111628-15.03334766 5.01111511h170.37794066c15.03334766 0 25.05557906 10.02223139 25.05557905 25.05558023s-10.02223139 25.05557906-25.05557905 25.05557906h-145.3223616v100.22231741h145.3223616z" p-id="1573"></path></svg>