<?xml version="1.0" standalone="no"?><!DOCTYPE svg PUBLIC "-//W3C//DTD SVG 1.1//EN" "http://www.w3.org/Graphics/SVG/1.1/DTD/svg11.dtd"><svg t="1599017528092" class="icon" viewBox="0 0 1024 1024" version="1.1" xmlns="http://www.w3.org/2000/svg" p-id="1110" width="64" height="64"><path d="M17.06666667 342.18666666S13.65333333 319.99999999 39.25333333 319.99999999H204.8S378.88 132.26666666 547.84 69.11999999h61.44v884.05333334H546.13333333s-192.85333333-73.38666667-341.33333333-252.58666667H35.84S17.06666667 700.58666666 17.06666667 678.39999999V342.18666666zM713.38666667 219.30666666L861.86666667 89.59999999s92.16-15.36 80.21333333 64.85333334C884.05333333 219.30666666 791.89333333 302.93333333 791.89333333 302.93333333s-109.22666667 27.30666667-78.50666666-83.62666667z m73.38666666 489.81333333l146.77333334 146.77333334s22.18666667 95.57333333-61.44 88.74666666C800.42666667 888.31999999 704.85333333 797.86666666 704.85333333 797.86666666s-35.84-110.93333333 81.92-88.74666667zM754.34666667 490.66666666s-10.24-42.66666667 40.96-42.66666667h187.73333333s44.37333333-10.24 44.37333333 42.66666667-8.53333333 61.44-42.66666666 61.44H776.53333333s-29.01333333 10.24-22.18666666-61.44z" p-id="1111"></path></svg>
