<svg id="图层_1" data-name="图层 1" xmlns="http://www.w3.org/2000/svg" viewBox="0 0 13.8 15.61"><defs><style>.cls-1{fill:#9ea3a8;}</style></defs><title>验证码</title><path class="cls-1" d="M15,3.52a1.11,1.11,0,0,0-.88-1,20.7,20.7,0,0,1-2.83-.65A10.53,10.53,0,0,1,8.76.42,1.16,1.16,0,0,0,7.4.42,6.64,6.64,0,0,1,4.85,1.89a9.51,9.51,0,0,1-2.76.68,1,1,0,0,0-.87,1s0,2.44,0,4.6c0,3.9,4.6,7.66,6.9,7.66s6.19-2.66,6.82-7.61a44.9,44.9,0,0,0,0-4.66h0Zm-2.5,3L7.7,11.06a.65.65,0,0,1-.8.08L6.77,11,4.12,8.28a.66.66,0,0,1,1-.9h0L7.28,9.67,11.6,5.58a.66.66,0,1,1,.9,1Z" transform="translate(-1.2 -0.2)"/></svg>