<svg id="图层_1" data-name="图层 1" xmlns="http://www.w3.org/2000/svg" viewBox="0 0 12.99 16"><defs><style>.cls-1{fill:#9ea3a8;}</style></defs><title>密码</title><path class="cls-1" d="M12.27,5.94a2.39,2.39,0,0,0,.11-.74V3.08A3.07,3.07,0,0,0,9.3,0H6.55A3.07,3.07,0,0,0,3.47,3.08V5.2a2.39,2.39,0,0,0,.11.74A2.34,2.34,0,0,0,1.47,8.28v5.38A2.33,2.33,0,0,0,3.8,16h8.32a2.33,2.33,0,0,0,2.34-2.34V8.28a2.47,2.47,0,0,0-2.19-2.34ZM4.92,3.08a1.58,1.58,0,0,1,1.6-1.6H9.26a1.58,1.58,0,0,1,1.6,1.6V5.2a1.69,1.69,0,0,1-.19.74H5.07a1.69,1.69,0,0,1-.19-.74V3.08Zm3,10.13A2.26,2.26,0,1,1,10.15,11,2.25,2.25,0,0,1,7.89,13.22Z" transform="translate(-1.47)"/></svg>