<?xml version="1.0" standalone="no"?><!DOCTYPE svg PUBLIC "-//W3C//DTD SVG 1.1//EN" "http://www.w3.org/Graphics/SVG/1.1/DTD/svg11.dtd"><svg t="1599017554695" class="icon" viewBox="0 0 1024 1024" version="1.1" xmlns="http://www.w3.org/2000/svg" p-id="1370" width="64" height="64"><path d="M185.77635555 245.58402333a228.35655111 228.35655111 0 1 0 228.35655112-228.35655112A228.35655111 228.35655111 0 0 0 185.77635555 245.58402333M573.74947555 968.71310222l-114.17827555-114.17827555a92.04167111 92.04167111 0 0 1 0-133.20798777l45.82665443-45.82665557a83.4977189 83.4977189 0 0 1 68.35162112-26.79694223l77.67229668-77.67229553a48.15682333 48.15682333 0 0 1 3.88361444-22.91332779 221.75440555 221.75440555 0 0 0-121.94550557-57.08913778H296.07101667A183.69498112 183.69498112 0 0 0 174.12551111 550.83614777c-68.35162112 60.97275221-163.50018333 175.15102777-155.34459221 315.73788444s163.50018333 140.97521778 395.74034887 140.97521778c95.14856334 0 213.21045333-7.76723001 243.50264889-11.2624822a98.25545443 98.25545443 0 0 1-83.88608-26.79694222z" p-id="1371"></path><path d="M992.40315221 915.50757888L861.52533333 786.18320555l-45.82665443-45.82665444 22.91332665-22.91332778a38.83614777 38.83614777 0 0 0 19.02971335 7.76723h3.88361443a33.01072555 33.01072555 0 0 0 22.91332779-11.26248334L931.4304 667.34459221a38.83614777 38.83614777 0 0 0 0-53.2055222L861.52533333 546.17580999l-45.82665443-45.82665444a36.89434112 36.89434112 0 0 0-53.20552335 0l-45.82665443 45.82665444a34.56417223 34.56417223 0 0 0-3.88361557 45.82665558l-11.26248221 7.76722886-108.74121557 110.29466112a38.83614777 38.83614777 0 0 0-19.02971222-7.76723 34.56417223 34.56417223 0 0 0-26.79694222 11.26248334l-45.82665443 45.82665444a38.83614777 38.83614777 0 0 0 0 53.20552334l114.17827555 114.17827555a36.89434112 36.89434112 0 0 0 53.20552221 0l45.82665557-45.82665443a34.56417223 34.56417223 0 0 0 3.88361444-45.82665558l22.91332778-19.02971221 64.85636665 64.85636779L861.52533333 939.19763001l49.32190777 49.32190777a56.70077667 56.70077667 0 0 0 34.17581113 15.14609777 41.16631666 41.16631666 0 0 0 34.17580999-15.14609777l7.76723001-7.76723001a41.16631666 41.16631666 0 0 0 3.88361444-64.85636665z" p-id="1372"></path></svg>
