<?xml version="1.0" standalone="no"?><!DOCTYPE svg PUBLIC "-//W3C//DTD SVG 1.1//EN" "http://www.w3.org/Graphics/SVG/1.1/DTD/svg11.dtd"><svg t="1599017540326" class="icon" viewBox="0 0 1024 1024" version="1.1" xmlns="http://www.w3.org/2000/svg" p-id="1240" width="64" height="64"><path d="M817.0966075 346.90788757a40.94583037 40.94583037 0 0 0 3.65244575-57.67018244L587.31296746 20.87912032a40.04873767 40.04873767 0 0 0-56.90124655-3.71652367 1303.92283629 1303.92283629 0 0 1-206.20294379 228.50208086A1635.59046647 1635.59046647 0 0 1 51.9414359 441.48698817a41.00990828 41.00990828 0 0 0-3.65244477 57.67018244l233.43608481 268.23042899a40.17689447 40.17689447 0 0 0 56.96532543 3.71652269 1399.52718442 1399.52718442 0 0 1 218.5059152-237.60115384 1611.17675543 1611.17675543 0 0 1 259.90029093-186.59508087z m151.73665976 555.36386194L652.80066469 539.14183038c-17.23697731 13.77676628-34.85842209 28.32246746-52.86433432 44.02157297s-35.37104536 32.03899013-51.58277514 47.48178402l316.60930473 363.70662132a64.71876134 64.71876134 0 0 0 92.01598027 6.02332937l5.89517456-5.19031558a66.25663215 66.25663215 0 0 0 5.95925247-92.91307298z" p-id="1241"></path></svg>
