<?xml version="1.0" standalone="no"?><!DOCTYPE svg PUBLIC "-//W3C//DTD SVG 1.1//EN" "http://www.w3.org/Graphics/SVG/1.1/DTD/svg11.dtd"><svg t="1599017569961" class="icon" viewBox="0 0 1059 1024" version="1.1" xmlns="http://www.w3.org/2000/svg" p-id="1501" width="64" height="64"><path d="M1059.44615401 966.892308L1001.550769 1024l-91.37230701-99.249231a185.89538501 185.89538501 0 0 1-131.93846199 23.236923 172.110769 172.110769 0 1 1 92.55384599-330.830769 169.747692 169.747692 0 0 1 102.00615401 227.643077 34.26461501 34.26461501 0 0 0 11.81538501 46.867692c24.02461501 24.02461501 48.836923 49.62461499 74.83076898 75.224616z m-354.46153902-187.864616a112.24615401 112.24615401 0 0 0 111.06461601 113.42769301 112.64 112.64 0 1 0 0-224.88615401 111.06461499 111.06461499 0 0 0-113.03384601 111.458461z" p-id="1502"></path><path d="M753.82153799 738.85538501l-12.996923-9.45230801a78.769231 78.769231 0 0 0-5.90769199 89.40307701l14.17846199-7.48307701a60.652308 60.652308 0 0 1-9.45230799-32.68923099 63.803077 63.803077 0 0 1 14.17846101-39.38461501zM689.230769 246.15384599A246.15384599 246.15384599 0 1 1 443.076923 0a246.547692 246.547692 0 0 1 246.153846 246.15384599z" p-id="1503"></path><path d="M679.38461499 938.53538501a1006.670769 1006.670769 0 0 1-221.73538399 24.418461A918.843077 918.843077 0 0 1 0 848.34461499v-176.04923c87.04-100.036923 252.849231-167.38461499 443.076923-167.38461599a698.289231 698.289231 0 0 1 319.015385 72.46769299 209.92 209.92 0 0 0-82.70769299 361.156923z" p-id="1504"></path></svg>
