<?xml version="1.0" standalone="no"?><!DOCTYPE svg PUBLIC "-//W3C//DTD SVG 1.1//EN" "http://www.w3.org/Graphics/SVG/1.1/DTD/svg11.dtd"><svg t="1606382092646" class="icon" viewBox="0 0 1024 1024" version="1.1" xmlns="http://www.w3.org/2000/svg" p-id="2067" xmlns:xlink="http://www.w3.org/1999/xlink" width="128" height="128"><defs><style type="text/css"></style></defs><path d="M660.48241407 92.48855065v3.89036892c-0.64839482-2.59357928-0.64839482-3.2419741 0-3.89036892-0.64839482-1.29678965 0-1.94518446 0-3.89036893v3.89036893z m-222.39942369 503.15438129c0 46.68442713 33.06813589 84.29132677 73.91700962 84.29132676 41.49726856 0 73.91700962-37.60689963 73.91700962-84.29132676s-33.06813589-84.29132677-73.91700962-84.29132676-73.91700962 37.60689963-73.91700962 84.29132676z" p-id="2068"></path><path d="M659.83401925 679.28586388c-11.67110679 0-22.69381875 5.83555339-29.17776696 16.20987054-26.58418767 41.49726856-69.37824587 67.43306141-118.00785747 67.4330614s-91.42366979-25.93579286-118.00785746-67.4330614c-7.13234304-11.02271197-18.15505499-16.20987052-29.17776696-16.20987054H69.14633707c-20.10023946 0-36.95850481 18.80344983-36.95850481 41.49726855V972.3603231c0 23.34221356 16.85826535 41.49726856 36.95850481 41.49726856h886.35572067c20.10023946 0 36.95850481-18.80344983 36.95850482-41.49726856v-251.57719067c0-23.34221356-16.85826535-41.49726856-36.95850482-41.49726855h-295.66803849zM290.89736595 49.69449244v545.30004468h627.64618698V49.69449244c0-23.34221356-16.85826535-41.49726856-36.95850482-41.49726856H327.85587077c-20.10023946 0-36.95850481 19.45184464-36.95850482 41.49726856z m462.30550756 398.76281507H458.18322983c-18.15505499 0-35.66171517-14.91308089-37.60689962-35.66171517-2.59357928-25.28739803 14.26468607-47.98121678 36.31010998-47.98121677H751.90608386c18.15505499 0 35.66171517 14.91308089 37.60689964 35.66171518 2.59357928 25.28739803-14.26468607 47.98121678-36.31010999 47.98121676z m0-189.33128781H458.18322983c-18.15505499 0-35.66171517-14.91308089-37.60689962-35.66171516-2.59357928-25.28739803 14.26468607-47.98121678 36.31010998-47.98121677H751.90608386c18.15505499 0 35.66171517 14.91308089 37.60689964 35.66171517 2.59357928 25.93579286-14.26468607 47.98121678-36.31010999 47.98121676z m-536.22251718 336.51691224H106.1048419V133.98581921c0-23.34221356 16.85826535-41.49726856 36.9585048-41.49726856h73.91700963v503.15438129z" p-id="2069"></path></svg>