<?xml version="1.0" standalone="no"?><!DOCTYPE svg PUBLIC "-//W3C//DTD SVG 1.1//EN" "http://www.w3.org/Graphics/SVG/1.1/DTD/svg11.dtd"><svg t="1606383614737" class="icon" viewBox="0 0 1080 1024" version="1.1" xmlns="http://www.w3.org/2000/svg" p-id="2842" xmlns:xlink="http://www.w3.org/1999/xlink" width="135" height="128"><defs><style type="text/css"></style></defs><path d="M1024 1024h-455.111111a56.888889 56.888889 0 0 1-56.888889-56.888889v-113.777778h568.888889v113.777778a56.888889 56.888889 0 0 1-56.888889 56.888889z m0-170.666667h-455.111111s67.128889-10.24 113.777778-56.888889H455.111111v227.555556H113.777778a113.777778 113.777778 0 0 1-113.777778-113.777778V113.777778a113.777778 113.777778 0 0 1 113.777778-113.777778h568.888889a113.777778 113.777778 0 0 1 113.777777 113.777778v284.444444a170.666667 170.666667 0 0 0-170.666666 170.666667c0 44.771556 17.578667 85.162667 45.795555 115.598222A444.529778 444.529778 0 0 1 625.777778 739.555556c-46.648889 46.648889-113.777778 56.888889-113.777778 56.888888h170.666667c34.872889-34.872889 65.024-81.749333 85.674666-117.703111A113.550222 113.550222 0 0 1 796.444444 455.111111a113.550222 113.550222 0 1 1 28.046223 223.687111c20.536889 35.84 50.631111 82.545778 85.731555 117.646222 45.511111 45.511111 113.777778 56.888889 113.777778 56.888889zM398.222222 170.666667H170.666667a56.888889 56.888889 0 0 0 0 113.777777h227.555555a56.888889 56.888889 0 0 0 0-113.777777z m113.777778 227.555555H170.666667a56.888889 56.888889 0 0 0 0 113.777778h341.333333a56.888889 56.888889 0 0 0 0-113.777778z m0 341.333334a56.888889 56.888889 0 0 0 0-113.777778H170.666667a56.888889 56.888889 0 0 0 0 113.777778h341.333333z" p-id="2843"></path></svg>