<?xml version="1.0" standalone="no"?><!DOCTYPE svg PUBLIC "-//W3C//DTD SVG 1.1//EN" "http://www.w3.org/Graphics/SVG/1.1/DTD/svg11.dtd"><svg t="1599017581781" class="icon" viewBox="0 0 1024 1024" version="1.1" xmlns="http://www.w3.org/2000/svg" p-id="1633" width="64" height="64"><path d="M948.736 612.864c-43.008-44.544-101.888-69.632-163.328-70.656-61.952 1.024-120.832 26.112-163.328 70.656-43.008 44.544-66.56 103.936-65.024 165.888-1.024 61.952 22.016 121.344 65.024 165.888 43.008 44.544 101.888 69.632 163.328 70.656 61.952-1.024 120.832-26.112 163.328-70.656 43.008-44.544 66.56-103.936 65.024-165.888 1.536-61.44-22.016-121.344-65.024-165.888zM893.44 785.92c-4.096 11.264-14.848 18.944-27.136 18.944-7.68 0-15.36-3.072-20.992-8.704l-27.136-30.208v100.352c0 8.192-3.072 15.872-8.704 21.504s-13.312 8.704-20.992 8.704c-8.192 0-15.872-3.072-20.992-8.704-5.632-5.632-8.704-13.312-8.704-21.504V760.832l-33.28 34.304c-5.632 5.632-12.8 8.704-20.992 8.704-12.288 0-22.528-7.68-27.136-18.944-4.608-11.264-2.048-24.064 6.144-33.28l79.36-82.432c12.8-11.776 32.256-11.776 44.544 0l79.872 82.944c8.192 9.728 10.752 22.528 6.144 33.792z" p-id="1634"></path><path d="M759.296 18.944H104.96c-43.52 0-79.36 35.84-79.36 79.36V847.36c0 43.52 35.84 79.36 79.36 79.36h382.464c-10.752-34.304-16.384-70.656-16.384-108.544 0-201.216 163.328-364.544 364.544-364.544h3.072V98.304c0-43.52-35.84-79.36-79.36-79.36zM358.912 572.416H201.728c-16.896 0-30.72-13.824-30.72-30.72s13.824-30.72 30.72-30.72h157.184c16.896 0 30.72 13.824 30.72 30.72s-13.824 30.72-30.72 30.72z m89.6-175.616c-5.12 9.216-14.848 15.36-26.112 15.36H201.216c-10.752 0-20.48-6.144-26.112-15.36-5.12-9.728-5.12-21.504 0-30.72 5.12-9.216 14.848-15.36 26.112-15.36h220.672c10.752 0 20.48 6.144 26.112 15.36 5.632 9.728 5.632 21.504 0.512 30.72z m154.112-154.624H201.728c-16.896 0-30.72-13.824-30.72-30.72s13.824-30.72 30.72-30.72h401.408c16.896 0 30.72 13.824 30.72 30.72s-13.824 30.72-31.232 30.72z" p-id="1635"></path></svg>
