<?xml version="1.0" standalone="no"?><!DOCTYPE svg PUBLIC "-//W3C//DTD SVG 1.1//EN" "http://www.w3.org/Graphics/SVG/1.1/DTD/svg11.dtd"><svg t="1606382078919" class="icon" viewBox="0 0 1024 1024" version="1.1" xmlns="http://www.w3.org/2000/svg" p-id="1205" xmlns:xlink="http://www.w3.org/1999/xlink" width="128" height="128"><defs><style type="text/css"></style></defs><path d="M304.384 13.568l331.52 0 0 104.704-331.52 0 0-104.704Z" p-id="1206"></path><path d="M711.424 877.824a149.248 149.248 0 0 1 201.216-139.776V153.6a82.688 82.688 0 0 0-82.432-82.432H698.88a76.8 76.8 0 0 1 6.144 29.952 76.8 76.8 0 0 1-76.8 76.8H312.832a76.8 76.8 0 0 1-76.8-76.8 76.8 76.8 0 0 1 6.144-29.952H110.08A82.688 82.688 0 0 0 27.648 153.6v754.432a82.688 82.688 0 0 0 82.432 82.432h652.8a148.736 148.736 0 0 1-51.456-112.64zM253.696 327.424h432.64a36.352 36.352 0 1 1 0 72.448H253.696a36.352 36.352 0 0 1 0-72.448z m198.4 455.424H253.696a36.352 36.352 0 0 1 0-72.448h198.4a36.352 36.352 0 1 1 0 72.448z m-198.4-179.2a36.352 36.352 0 0 1 0-72.448h432.64a36.352 36.352 0 0 1 0 72.448z" p-id="1207"></path><path d="M813.568 961.024l-5.376-151.552 133.888 71.168-128.512 80.384z" p-id="1208"></path></svg>
