<?xml version="1.0" standalone="no"?><!DOCTYPE svg PUBLIC "-//W3C//DTD SVG 1.1//EN" "http://www.w3.org/Graphics/SVG/1.1/DTD/svg11.dtd"><svg t="1599017621186" class="icon" viewBox="0 0 1024 1024" version="1.1" xmlns="http://www.w3.org/2000/svg" p-id="1898" width="64" height="64"><path d="M938.11612903 814.24516129c-3.30322549-82.58064484-44.59354839-155.25161322-105.70322612-201.49677387V389.78064548c0-128.82580645-92.49032226-236.18064484-213.05806452-262.60645161v-3.30322645C619.35483839 64.41290291 571.45806452 16.51612903 512 16.51612903s-107.35483839 47.89677387-107.35483839 107.35483839v4.95483871c-122.21935452 24.77419355-213.05806452 133.78064516-213.05806452 262.60645161v222.96774194C130.47741935 660.64516129 89.18709645 733.31612871 85.88387097 815.89677451H938.11612903v-1.65161322zM488.87741967 1007.48387097h26.42580582c69.36774194 0 127.17419323-52.85161258 135.43225838-118.91612903H373.26451613c8.2580642 67.71612871 66.06451645 118.91612903 135.43225838 118.91612903h-19.81935484z m0 0" p-id="1899"></path></svg>
