<?xml version="1.0" standalone="no"?><!DOCTYPE svg PUBLIC "-//W3C//DTD SVG 1.1//EN" "http://www.w3.org/Graphics/SVG/1.1/DTD/svg11.dtd"><svg t="1606382090529" class="icon" viewBox="0 0 1077 1024" version="1.1" xmlns="http://www.w3.org/2000/svg" p-id="1925" xmlns:xlink="http://www.w3.org/1999/xlink" width="134.625" height="128"><defs><style type="text/css"></style></defs><path d="M11.13043478 690.73135022A128.82013728 128.82013728 0 0 0 139.95057206 819.5514875H424.12814685v123.020595h-146.39450869a35.14874184 35.14874184 0 0 0 0 70.29748272h527.23112184a35.14874184 35.14874184 0 0 0 0-70.29748272H652.59496544v-123.020595h284.17757478A128.82013728 128.82013728 0 0 0 1065.5926775 690.73135022V661.38215065H11.13043478z" p-id="1926"></path><path d="M804.96476 316.04576652m-52.5473687 0a52.5473687 52.5473687 0 1 0 105.09473643 0 52.5473687 52.5473687 0 1 0-105.09473643 0Z" p-id="1927"></path><path d="M936.77254021 11.13043478H139.95057206A128.82013728 128.82013728 0 0 0 11.13043478 139.95057206V591.08466794h1054.46224272V139.95057206A128.82013728 128.82013728 0 0 0 936.77254021 11.13043478z m-474.50800956 421.78489728h-281.18993087a26.36155564 26.36155564 0 0 1 0-52.72311228h281.18993087a26.36155564 26.36155564 0 0 1 0 52.72311228z m0-193.31807771h-281.18993087a26.36155564 26.36155564 0 0 1 0-52.72311229h281.18993087a26.36155564 26.36155564 0 0 1 0 52.72311229z m469.05995446 142.52814586A37.96064119 37.96064119 0 0 0 889.84897022 430.45491989a136.20137282 136.20137282 0 0 1-35.14874185 18.80457652 37.43340945 37.43340945 0 0 0-70.29748272 7.02974837 140.59496544 140.59496544 0 0 1-39.36658989-11.95057174A37.60915304 37.60915304 0 0 0 687.3922201 397.76659021a149.20640707 149.20640707 0 0 1-19.15606466-38.1363838 37.60915304 37.60915304 0 0 0-3.86636185-74.51533272A142.35240229 142.35240229 0 0 1 678.95652206 246.62700271a38.13638478 38.13638478 0 0 0 51.4929062-54.30480554 144.63707087 144.63707087 0 0 1 38.48787196-16.51990891 37.96064119 37.96064119 0 0 0 72.23066315 0 143.58260837 143.58260837 0 0 1 38.13638478 15.99267717A37.78489663 37.78489663 0 0 0 926.9308925 239.59725435a140.59496544 140.59496544 0 0 1 15.64119 38.3121274 37.96064119 37.96064119 0 0 0 2.28466761 64.14645324 149.03066347 149.03066347 0 0 1-13.532265 40.06956522z" p-id="1928"></path></svg>
