<?xml version="1.0" standalone="no"?><!DOCTYPE svg PUBLIC "-//W3C//DTD SVG 1.1//EN" "http://www.w3.org/Graphics/SVG/1.1/DTD/svg11.dtd"><svg t="1606384170507" class="icon" viewBox="0 0 1024 1024" version="1.1" xmlns="http://www.w3.org/2000/svg" p-id="1459" xmlns:xlink="http://www.w3.org/1999/xlink" width="128" height="128"><defs><style type="text/css"></style></defs><path d="M776.87466667 525.65333333h-327.68c-27.30666667 0-49.152-21.84533333-49.152-49.152s21.84533333-49.152 49.152-49.152h327.68c27.30666667 0 49.152 21.84533333 49.152 49.152s-21.84533333 49.152-49.152 49.152z m-559.78666667 144.72533334c0 30.03733333 21.84533333 51.88266667 51.88266667 51.88266666s51.88266667-24.576 51.88266666-51.88266666-21.84533333-51.88266667-51.88266666-51.88266667-51.88266667 21.84533333-51.88266667 51.88266667z m0-193.87733334c0 30.03733333 21.84533333 51.88266667 51.88266667 51.88266667s51.88266667-24.576 51.88266666-51.88266667-21.84533333-51.88266667-51.88266666-51.88266666-51.88266667 24.576-51.88266667 51.88266666z m559.78666667 243.02933334h-327.68c-27.30666667 0-49.152-21.84533333-49.152-49.152s21.84533333-49.152 49.152-49.152h327.68c27.30666667 0 49.152 21.84533333 49.152 49.152s-21.84533333 49.152-49.152 49.152z m223.91466666 158.37866666v-614.4c0-73.728-68.26666667-68.26666667-68.26666666-68.26666666H547.49866667c-21.84533333 0-35.49866667-10.92266667-35.49866667-10.92266667s-16.384-27.30666667-46.42133333-70.99733333c-27.30666667-49.152-62.80533333-40.96-62.80533334-40.96H105.13066667c-84.65066667 0-84.65066667 79.18933333-84.65066667 79.18933333v720.896c0 90.112 68.26666667 79.18933333 68.26666667 79.18933333h851.968c70.99733333 0 60.07466667-73.728 60.07466666-73.728z" p-id="1460"></path></svg>