<?xml version="1.0" standalone="no"?><!DOCTYPE svg PUBLIC "-//W3C//DTD SVG 1.1//EN" "http://www.w3.org/Graphics/SVG/1.1/DTD/svg11.dtd"><svg t="1606384423860" class="icon" viewBox="0 0 1024 1024" version="1.1" xmlns="http://www.w3.org/2000/svg" p-id="1489" xmlns:xlink="http://www.w3.org/1999/xlink" width="128" height="128"><defs><style type="text/css"></style></defs><path d="M912.00000031 32H111.99999969a79.99999969 79.99999969 0 0 0-79.99999969 79.99999969v120a79.99999969 79.99999969 0 0 0 79.99999969 80.00000062h800.00000062a79.99999969 79.99999969 0 0 0 79.99999969-80.00000062V111.99999969a79.99999969 79.99999969 0 0 0-79.99999969-79.99999969zM186.68 192.00000031a40.00000031 40.00000031 0 1 1 0-40.00000031 40.00000031 40.00000031 0 0 1 0 40.00000031zM591.99999969 951.99999969v-240H111.99999969a79.99999969 79.99999969 0 0 0-79.99999969 80.00000062v120a79.99999969 79.99999969 0 0 0 79.99999969 79.99999969h520.00000031a40.00000031 40.00000031 0 0 1-40.00000031-40.00000031zM186.68 872a40.00000031 40.00000031 0 1 1 0-40.00000031 40.00000031 40.00000031 0 0 1 0 40.00000031zM912.00000031 372.00000031H111.99999969a79.99999969 79.99999969 0 0 0-79.99999969 79.99999969v120a79.99999969 79.99999969 0 0 0 79.99999969 79.99999969h480V632a40.00000031 40.00000031 0 0 1 40.00000031-40.00000031h319.99999969a40.00000031 40.00000031 0 0 1 31.68 15.56000062A79.68 79.68 0 0 0 992 572v-120a79.99999969 79.99999969 0 0 0-79.99999969-79.99999969z m-725.28 159.99999938a40.00000031 40.00000031 0 1 1 0-39.99999938 40.00000031 40.00000031 0 0 1-0.04000031 39.99999938zM672.00000031 632a40.00000031 40.00000031 0 0 0-40.00000031 40.00000031v279.99999938a40.00000031 40.00000031 0 0 0 40.00000031 40.00000031h279.99999938a40.00000031 40.00000031 0 0 0 40.00000031-40.00000031v-240l-79.99999969-79.99999969h-240z m240 319.99999969h-200.00000062v-39.99999938a40.00000031 40.00000031 0 0 1 40.00000031-40.00000031h120a40.00000031 40.00000031 0 0 1 40.00000031 40.00000031v39.99999938z m0-199.99999969a40.00000031 40.00000031 0 0 1-40.00000031 40.00000031h-120a40.00000031 40.00000031 0 0 1-40.00000031-40.00000031v-79.99999969h200.00000062v79.99999969z" p-id="1490"></path></svg>