<?xml version="1.0" standalone="no"?><!DOCTYPE svg PUBLIC "-//W3C//DTD SVG 1.1//EN" "http://www.w3.org/Graphics/SVG/1.1/DTD/svg11.dtd"><svg t="1606383612830" class="icon" viewBox="0 0 1024 1024" version="1.1" xmlns="http://www.w3.org/2000/svg" p-id="2702" xmlns:xlink="http://www.w3.org/1999/xlink" width="128" height="128"><defs><style type="text/css"></style></defs><path d="M1008.722328 232.517995a79.488867 79.488867 0 0 0-62.455539-30.092214H171.250335a76.649979 76.649979 0 0 0-17.601106 0L71.321474 23.57583A36.905545 36.905545 0 1 0 4.323715 54.235822l94.818862 204.967721a76.649979 76.649979 0 0 0 0 19.872217v440.595435A76.082201 76.082201 0 0 0 171.250335 796.888951h510.99986a76.36609 76.36609 0 0 1 0 152.732181H171.250335v-56.777763a36.905545 36.905545 0 0 0-73.81109 0V1024H682.250195a150.46107 150.46107 0 0 0 124.343299-233.92438 68.133315 68.133315 0 0 0 23.84666-18.736662 144.783294 144.783294 0 0 0 22.143328-36.905545l166.358843-434.917659v-3.406665a69.26887 69.26887 0 0 0-11.355552-61.887761M346.693621 721.942305H171.250335V536.8468h176.011063z m0-258.906595H171.250335V279.07576h175.443286z m238.466601 258.906595h-164.655511V536.8468h164.655511z m0-258.906595h-164.655511V276.236872h164.655511z m198.722168 243.008822a150.46107 150.46107 0 0 1-7.948887 16.465551h-116.96219V536.8468h189.637725z m93.115529-243.008822h-218.026606V276.236872h288.998809z" p-id="2703"></path></svg>