<?xml version="1.0" standalone="no"?><!DOCTYPE svg PUBLIC "-//W3C//DTD SVG 1.1//EN" "http://www.w3.org/Graphics/SVG/1.1/DTD/svg11.dtd"><svg t="1606383602157" class="icon" viewBox="0 0 1024 1024" version="1.1" xmlns="http://www.w3.org/2000/svg" p-id="1993" xmlns:xlink="http://www.w3.org/1999/xlink" width="128" height="128"><defs><style type="text/css"></style></defs><path d="M372.24187947 902.0952384H124.50539733C66.095136 902.0952384 17.87936533 856.42808853 17.87936533 799.83827307V120.13633067C17.87936533 64.11865387 65.52299733 17.87936533 124.50539733 17.87936533h566.93841174C749.90608213 17.87936533 798.06984107 63.54651413 798.06984107 120.13633067v203.88977706a34.84850773 34.84850773 0 0 1-35.7327232 34.276368 34.84850773 34.84850773 0 0 1-35.73272427-34.276368v-203.36965013c0-18.46450773-15.86387307-34.276368-35.68071147-34.27636907H123.9332576c-19.29671147 0-35.73272427 15.23972053-35.73272427 34.27636907v679.7539552c0 18.46450773 15.86387307 34.276368 35.73272427 34.276368h248.30862187a34.84850773 34.84850773 0 0 1 35.7327232 34.2243552c0 19.03664747-15.86387307 33.18410133-35.7327232 33.1841024z" p-id="1994"></path><path d="M720.0507936 1006.12063467a283.4692064 283.4692064 0 0 1-202.17335893-83.89648214A284.76952427 284.76952427 0 0 1 433.98095253 720.0507936a283.4692064 283.4692064 0 0 1 83.89648214-202.17335893A284.76952427 284.76952427 0 0 1 720.0507936 433.98095253a283.4692064 283.4692064 0 0 1 202.17335893 83.89648214A283.4692064 283.4692064 0 0 1 1006.12063467 720.0507936a283.4692064 283.4692064 0 0 1-83.89648214 202.17335893A283.4692064 283.4692064 0 0 1 720.0507936 1006.12063467z m0-503.84700907a218.45333333 218.45333333 0 0 0-218.29729493 218.29729493 218.45333333 218.45333333 0 0 0 218.29729493 218.34930774 218.45333333 218.45333333 0 0 0 218.29729493-218.34930774 218.45333333 218.45333333 0 0 0-218.29729493-218.29729493zM604.58260267 329.9555552H159.35390507C138.5488256 329.9555552 121.9047616 306.86191787 121.9047616 277.9428576s16.644064-52.01269867 37.44914347-52.01269867h445.2286976c20.80507947 0 37.4491424 23.0936384 37.44914346 52.01269867s-17.21620267 52.01269867-37.44914346 52.0126976zM396.53180907 485.9936512H211.36660267C190.56152427 485.9936512 173.91746027 462.9000128 173.91746027 433.98095253s16.644064-52.01269867 37.4491424-52.01269866h185.1652064c20.80507947 0 37.4491424 23.0936384 37.44914346 52.01269866s-16.644064 52.01269867-37.44914346 52.01269867zM298.17579733 746.0571424H205.22910507C187.856864 746.0571424 173.91746027 722.96350507 173.91746027 694.0444448s13.93940267-52.01269867 31.3116448-52.01269867h93.4148064c17.37224107 0 31.3116448 23.0936384 31.31164373 52.01269867s-14.40751787 52.01269867-31.77975787 52.0126976z" p-id="1995"></path><path d="M720.2588448 798.06984107a31.0515808 31.0515808 0 0 1-18.152432-6.5536l-97.52381013-74.37815894c-15.08368213-11.2347424-19.24469867-34.4324064-8.84215787-51.70062186 9.8824128-17.26821547 30.11535253-22.00137173 45.14702187-10.14247574l69.0208512 52.94892694 79.891504-152.24116907c9.36228587-17.8403552 29.02308587-23.197664 44.5748832-12.48304747 15.60380907 10.66260267 20.28495253 33.28812693 10.92266666 51.1284832l-97.52381013 186.20546027a33.028064 33.028064 0 0 1-20.80507947 17.21620267c-2.08050773-0.57213973-4.62913067 0-6.70963733 0z" p-id="1996"></path></svg>