<?xml version="1.0" standalone="no"?><!DOCTYPE svg PUBLIC "-//W3C//DTD SVG 1.1//EN" "http://www.w3.org/Graphics/SVG/1.1/DTD/svg11.dtd"><svg t="1606383617220" class="icon" viewBox="0 0 1024 1024" version="1.1" xmlns="http://www.w3.org/2000/svg" p-id="2982" xmlns:xlink="http://www.w3.org/1999/xlink" width="128" height="128"><defs><style type="text/css"></style></defs><path d="M797.50371555 573.41610667c-123.03928889-0.16497778-222.93504 99.53393778-222.93504 222.56184888 0 123.01767111 99.42471111 222.59598222 222.24327112 222.6176 123.17127111 0.02275555 222.85880889-99.21536 222.98055111-221.94744888 0.12970667-123.23726222-99.25063111-223.04540445-222.28878223-223.232z m69.9244089 309.04206222c-7.64814222 2.53610667-14.87075555 1.09795555-20.66204445-4.80824889-14.52600889-14.90944-73.37187555-74.62343111-87.68170667-89.81731555-3.83772445-4.04024889-5.65475555-9.17845333-5.65475555-14.93105778 0-29.59928889-0.09329778-59.20881778 0.04437333-88.84110222 0.09329778-12.29596445 9.30474667-21.66101333 20.87594667-21.69287112 11.70318222-0.04437333 23.3472 9.48565333 23.47349333 22.02282667 0.08760889 12.51555555-0.27534222 62.88611555-0.01137778 75.54389333 0.04323555 2.12992 1.2288 4.74339555 2.63395556 6.25891556 10.94542222 11.81240889 64.36864 67.81041778 75.29244444 79.63989333 11.22076445 12.13098667 6.74019555 31.59722667-8.31032888 36.62506667z m-642.28238223-693.17973334c26.32704 0 47.66947555-20.64042667 47.66947556-46.07772444v-92.16682666c0-25.46005333-21.34243555-46.08910222-47.66947556-46.08910223s-47.65923555 20.62904889-47.65923555 46.08910223v92.16682666c0 25.44867555 21.33219555 46.07772445 47.65923555 46.07772444z m476.69930667 0c26.33272889 0 47.66947555-20.64042667 47.66947556-46.07772444v-92.16682666c0-25.46005333-21.34926222-46.08910222-47.66947556-46.08910223-26.32817778 0-47.66947555 20.62904889-47.66947556 46.08910223v92.16682666c-0.00568889 25.44867555 21.34243555 46.07772445 47.66947556 46.07772444z m-238.34965334 0c26.32704 0 47.66947555-20.64042667 47.66947556-46.07772444v-92.16682666c0-25.46005333-21.34812445-46.08910222-47.66947556-46.08910223-26.32704 0-47.65923555 20.62904889-47.65923555 46.08910223v92.16682666c-0.01024 25.44867555 21.33219555 46.07772445 47.65923555 46.07772444z" p-id="2983"></path><path d="M524.78976 834.40412445H169.53799111c-21.94659555 0-39.72664889-17.21002667-39.72664889-38.40455112 0-21.20021333 17.78005333-38.39203555 39.72664889-38.39203555h354.39047111c5.29749333-39.28177778 19.30695111-75.78624 40.02929778-107.52682667H177.48650667c-26.33841778 0-47.67516445-20.62904889-47.67516445-46.07772444 0-25.46005333 21.33674667-46.07886222 47.67516445-46.07886222h490.53240888c34.74887111-17.05984 73.79968-26.66723555 115.12490667-26.66723556 51.99530667 0 100.42368 15.22801778 141.14929778 41.39008V143.20071111c0-25.46005333-21.33219555-46.08910222-47.65923555-46.08910222h-79.45898667v46.08910222c0 50.89735111-42.69056 92.15544889-95.34008889 92.15544889-52.65408 0-95.34008889-41.25809778-95.34008889-92.15544889v-46.08910222h-47.66492445v46.08910222c0 50.89735111-42.68032 92.15544889-95.34008888 92.15544889-52.64839111 0-95.3344-41.25809778-95.3344-92.15544889v-46.08910222h-47.67516445v46.08910222c0 50.89735111-42.68032 92.15544889-95.3344 92.15544889-52.64384 0-95.3344-41.25809778-95.3344-92.15544889v-46.08910222H50.35804445c-26.33272889 0-47.66492445 20.62904889-47.66492445 46.08910222v798.71772444c0 25.44867555 21.33219555 46.07886222 47.66492445 46.07886223h558.4531911c-43.81696-39.18279111-74.34922667-92.90296889-84.02147555-153.59317333zM177.48650667 358.23160889h572.02915555c26.33728 0 47.65923555 20.64042667 47.65923556 46.08910222s-21.33219555 46.07886222-47.65923556 46.07886222h-572.02915555c-26.33841778 0-47.67516445-20.62904889-47.67516445-46.07886222s21.33674667-46.08910222 47.67516445-46.08910222z" p-id="2984"></path></svg>