<?xml version="1.0" standalone="no"?><!DOCTYPE svg PUBLIC "-//W3C//DTD SVG 1.1//EN" "http://www.w3.org/Graphics/SVG/1.1/DTD/svg11.dtd"><svg t="1606383604378" class="icon" viewBox="0 0 1024 1024" version="1.1" xmlns="http://www.w3.org/2000/svg" p-id="2135" xmlns:xlink="http://www.w3.org/1999/xlink" width="128" height="128"><defs><style type="text/css"></style></defs><path d="M521.524608 814.08A230.4 230.4 0 0 1 900.660608 640V102.4a102.4 102.4 0 0 0-102.4-102.4H166.452608a102.4 102.4 0 0 0-102.4 102.4v839.424a78.592 78.592 0 0 0 36.352 70.4 79.872 79.872 0 0 0 80.384-1.792L484.660608 844.8l44.032 24.064a223.744 223.744 0 0 1-7.168-54.784zM371.252608 314.368a25.6 25.6 0 0 1 25.6-25.6h295.424a25.6 25.6 0 0 1 25.6 25.6v33.536a25.6 25.6 0 0 1-25.6 25.6H396.852608a25.6 25.6 0 0 1-25.6-25.6v-33.536zM305.716608 588.8H272.692608a25.6 25.6 0 0 1-25.6-25.6v-32.256a25.6 25.6 0 0 1 25.6-25.6h33.024a25.6 25.6 0 0 1 25.6 25.6V563.2a25.6 25.6 0 0 1-25.6 25.6z m0-216.576H272.692608a25.6 25.6 0 0 1-25.6-25.6v-32.512a25.6 25.6 0 0 1 25.6-25.6h33.28a25.6 25.6 0 0 1 25.6 25.6v33.536a25.6 25.6 0 0 1-25.6 25.6zM396.852608 588.8a25.6 25.6 0 0 1-25.6-25.6v-32.256a25.6 25.6 0 0 1 25.6-25.6h295.424a25.6 25.6 0 0 1 25.6 25.6V563.2a25.6 25.6 0 0 1-25.6 25.6H396.852608z m358.4 29.952a201.984 201.984 0 1 0 204.8 201.984 201.984 201.984 0 0 0-204.8-201.984zM727.604608 921.6l-111.872-102.4 51.2-45.568 61.696 56.064 117.504-106.752 51.2 45.568z" p-id="2136"></path></svg>