<?xml version="1.0" standalone="no"?><!DOCTYPE svg PUBLIC "-//W3C//DTD SVG 1.1//EN" "http://www.w3.org/Graphics/SVG/1.1/DTD/svg11.dtd"><svg t="1599017657415" class="icon" viewBox="0 0 1024 1024" version="1.1" xmlns="http://www.w3.org/2000/svg" p-id="2292" width="64" height="64"><path d="M517.91749565 192.05843478m-113.67457391 0a7.10466087 7.10466087 0 1 0 227.34914782 0 7.10466087 7.10466087 0 1 0-227.34914782 0Z" p-id="2293"></path><path d="M721.47589565 186.03742609c0.9316174 16.9243826-0.91436522 33.38295652-5.07213913 48.94441739 10.21328696 2.39805218 20.90963478 3.43318261 31.93377392 2.81210434 62.67714782-3.41593044 110.72445218-57.03568696 107.27401738-119.71283478C852.21286956 55.4212174 798.59311305 7.37391304 735.93321739 10.80709565c-37.14393044 2.05300869-69.02594782 21.72048695-88.21036521 50.42810435C689.59387827 87.49300869 718.57753044 133.00424348 721.47589565 186.03742609z" p-id="2294"></path><path d="M831.32048695 310.40834782l-120.83422608 0c-4.15777392 8.66059131-8.9883826 16.94163478-14.57808695 24.61885218 53.32646956 18.99464348 91.60904348 69.9748174 91.60904348 129.71909565l0 162.70525217c0 52.23958261-28.72486956 98.25113044-72.99394784 121.59332174l0 170.41697392c0 9.73022609-1.03513044 19.23617391-2.95012174 28.36257391 9.4541913 3.20890435 19.56396522 5.0203826 30.07053914 5.02038261l16.68285218 0c51.8427826 0 93.86907826-42.04354783 93.86907826-93.88633044L852.1956174 658.4192c41.78476522-9.48869565 72.99394783-46.78789565 72.99394782-91.45377391l0-162.68800001C925.17231304 352.43464348 883.16326956 310.40834782 831.32048695 310.40834782z" p-id="2295"></path><path d="M264.75909565 247.21363478c13.07714782 1.46643478 25.82650435 0.51756522 37.95478262-2.26003478-6.40055651-20.25405218-8.8676174-42.11255652-6.36605218-64.52313044 5.46893913-48.94441739 32.91714782-90.17711305 71.40674782-114.98573912-18.18379131-23.85975652-45.64925218-40.61161739-77.82455651-44.18281739-62.41836522-6.95262609-118.60869565 38.0237913-125.56132175 100.40765217C157.41606956 184.07067826 202.35798261 240.26100869 264.75909565 247.21363478z" p-id="2296"></path><path d="M312.92716522 749.04486956c-44.3035826-23.32493913-73.0112-69.35373913-73.0112-121.57606956l0-162.70525217c0-59.74427827 38.28257391-110.72445218 91.60904347-129.71909565-1.88048696-2.57057391-3.60570435-5.24466087-5.31366955-7.93600001l-130.11589566 0c-51.82553044 0-93.86907826 42.02629565-93.86907826 93.86907827l0 162.688c0 44.66587826 31.22643478 81.96507826 73.0112 91.47102608L175.23756522 875.67582608c0 51.8427826 42.02629565 93.86907826 93.86907826 93.86907827l16.68285217 0c12.09377391 0 23.60097391-2.36354782 34.1938087-6.53857391-4.55457391-13.68097392-7.0733913-28.3108174-7.0733913-43.52723479L312.90991305 749.04486956z" p-id="2297"></path><path d="M693.14782609 627.4688l0-162.70525217c0-51.8427826-42.02629565-93.85182609-93.86907826-93.85182609l-85.43276523 157.42608695-77.27248695-157.42608695c-51.8427826 0-93.86907826 42.00904348-93.86907825 93.85182609l0 162.70525217c0 44.66587826 31.22643478 81.94782609 72.99394782 91.45377391l0 200.57377392c0 51.8427826 42.04354783 93.88633044 93.86907826 93.88633044l16.68285217 0c51.8427826 0 93.86907826-42.02629565 93.86907826-93.88633044L620.11937391 718.90532173C661.90413914 709.41662609 693.14782609 672.13467826 693.14782609 627.4688zM659.92013913 539.03415652l-34.21106087 0 0 34.24556522-28.08653912 0 0-34.24556522-34.22831305 0 0-28.06928696 34.22831305 0 0-34.21106087 28.08653912 0 0 34.21106087 34.21106087 0L659.92013913 539.03415652z" p-id="2298"></path></svg>
