<?xml version="1.0" standalone="no"?><!DOCTYPE svg PUBLIC "-//W3C//DTD SVG 1.1//EN" "http://www.w3.org/Graphics/SVG/1.1/DTD/svg11.dtd"><svg t="1599017646930" class="icon" viewBox="0 0 1032 1024" version="1.1" xmlns="http://www.w3.org/2000/svg" p-id="2162" width="64" height="64"><path d="M16.7592587 63.13789032v713.68925807a94.26084581 94.26084581 0 0 0 58.81529227 83.40130065l419.13497516 147.25542193V168.25828032L75.57455097 21.00285838a41.52689806 41.52689806 0 0 0-58.81529226 42.13503194z m938.26463517-43.00379516l-148.55856677 64.2885029v713.25487549a131.0529813 131.0529813 0 0 1-52.12581388 97.73589967l-114.28584483 76.88557356 314.79647323-112.93926098a92.30612709 92.30612709 0 0 0 59.2062358-82.53253741V63.13789032a42.30878517 42.30878517 0 0 0-59.2062358-43.00379516zM764.89499097 776.82714839V63.13789032a30.40672452 30.40672452 0 0 0-52.12581291-27.80043291l-176.61962999 132.92082291v839.22559065l176.61962999-132.92082291a131.0529813 131.0529813 0 0 0 52.12581291-97.73589967z m0 0" p-id="2163"></path></svg>
